<mxfile host="app.diagrams.net" modified="2022-06-17T12:40:50.273Z" agent="5.0 (Macintosh; Intel Mac OS X 10_15_7) AppleWebKit/537.36 (KHTML, like Gecko) Chrome/102.0.0.0 Safari/537.36" etag="s_LViSv7pJ2tQFD0Ac4V" version="20.0.1" type="github">
  <diagram name="Page-1" id="13e1069c-82ec-6db2-03f1-153e76fe0fe0">
    <mxGraphModel dx="1298" dy="756" grid="1" gridSize="10" guides="1" tooltips="1" connect="1" arrows="1" fold="1" page="1" pageScale="1" pageWidth="1100" pageHeight="850" background="none" math="0" shadow="0">
      <root>
        <mxCell id="0" />
        <mxCell id="1" parent="0" />
        <mxCell id="LrHT0d0IzoWxdyFSj2tb-30" value="Loop" style="rounded=1;absoluteArcSize=1;arcSize=2;html=1;strokeColor=none;gradientColor=none;shadow=0;dashed=1;strokeColor=#4284F3;fontSize=12;fontColor=#9E9E9E;align=left;verticalAlign=top;spacing=10;spacingTop=-4;fillColor=none;dashPattern=1 2;strokeWidth=2;" parent="1" vertex="1">
          <mxGeometry x="100" y="160" width="820" height="260" as="geometry" />
        </mxCell>
        <mxCell id="7baba1c4bc27f4b0-3" value=":AOT服务" style="shape=umlLifeline;perimeter=lifelinePerimeter;whiteSpace=wrap;html=1;container=1;collapsible=0;recursiveResize=0;outlineConnect=0;rounded=1;shadow=0;comic=0;labelBackgroundColor=none;strokeWidth=1;fontFamily=Verdana;fontSize=12;align=center;" parent="1" vertex="1">
          <mxGeometry x="300" y="80" width="100" height="630" as="geometry" />
        </mxCell>
        <mxCell id="S0LsM8EeW1_96Y5W6TbT-2" value="" style="html=1;points=[];perimeter=orthogonalPerimeter;rounded=0;shadow=0;comic=0;labelBackgroundColor=none;strokeWidth=1;fontFamily=Verdana;fontSize=12;align=center;" parent="7baba1c4bc27f4b0-3" vertex="1">
          <mxGeometry x="45" y="70" width="10" height="260" as="geometry" />
        </mxCell>
        <mxCell id="gpRju-ZgFS8z4ciWEc_b-4" style="edgeStyle=orthogonalEdgeStyle;rounded=0;orthogonalLoop=1;jettySize=auto;html=1;fontSize=16;" parent="7baba1c4bc27f4b0-3" edge="1">
          <mxGeometry relative="1" as="geometry">
            <mxPoint x="-150" y="120" as="sourcePoint" />
            <mxPoint x="40" y="120" as="targetPoint" />
            <Array as="points">
              <mxPoint x="-150" y="120" />
              <mxPoint x="221" y="120" />
            </Array>
          </mxGeometry>
        </mxCell>
        <mxCell id="gpRju-ZgFS8z4ciWEc_b-5" value="1: 上报进度" style="edgeLabel;html=1;align=center;verticalAlign=middle;resizable=0;points=[];" parent="gpRju-ZgFS8z4ciWEc_b-4" vertex="1" connectable="0">
          <mxGeometry x="-0.1263" y="3" relative="1" as="geometry">
            <mxPoint as="offset" />
          </mxGeometry>
        </mxCell>
        <mxCell id="LrHT0d0IzoWxdyFSj2tb-4" value="" style="html=1;points=[];perimeter=orthogonalPerimeter;rounded=0;shadow=0;comic=0;labelBackgroundColor=none;strokeWidth=1;fontFamily=Verdana;fontSize=12;align=center;" parent="7baba1c4bc27f4b0-3" vertex="1">
          <mxGeometry x="55" y="110" width="10" height="50" as="geometry" />
        </mxCell>
        <mxCell id="7baba1c4bc27f4b0-5" value=":Redis" style="shape=umlLifeline;perimeter=lifelinePerimeter;whiteSpace=wrap;html=1;container=1;collapsible=0;recursiveResize=0;outlineConnect=0;rounded=1;shadow=0;comic=0;labelBackgroundColor=none;strokeWidth=1;fontFamily=Verdana;fontSize=12;align=center;" parent="1" vertex="1">
          <mxGeometry x="680" y="80" width="110" height="580" as="geometry" />
        </mxCell>
        <mxCell id="LrHT0d0IzoWxdyFSj2tb-14" value="" style="html=1;points=[];perimeter=orthogonalPerimeter;rounded=0;shadow=0;comic=0;labelBackgroundColor=none;strokeWidth=1;fontFamily=Verdana;fontSize=12;align=center;" parent="7baba1c4bc27f4b0-5" vertex="1">
          <mxGeometry x="50" y="190" width="10" height="100" as="geometry" />
        </mxCell>
        <mxCell id="Tr3l8-SMdbQjOJhXC0d--1" value="" style="html=1;points=[];perimeter=orthogonalPerimeter;rounded=0;shadow=0;comic=0;labelBackgroundColor=none;strokeWidth=1;fontFamily=Verdana;fontSize=12;align=center;" vertex="1" parent="7baba1c4bc27f4b0-5">
          <mxGeometry x="50" y="310" width="10" height="30" as="geometry" />
        </mxCell>
        <mxCell id="7baba1c4bc27f4b0-8" value=":机器人" style="shape=umlLifeline;perimeter=lifelinePerimeter;whiteSpace=wrap;html=1;container=1;collapsible=0;recursiveResize=0;outlineConnect=0;rounded=1;shadow=0;comic=0;labelBackgroundColor=none;strokeWidth=1;fontFamily=Verdana;fontSize=12;align=center;" parent="1" vertex="1">
          <mxGeometry x="80" y="80" width="130" height="660" as="geometry" />
        </mxCell>
        <mxCell id="7baba1c4bc27f4b0-9" value="" style="html=1;points=[];perimeter=orthogonalPerimeter;rounded=0;shadow=0;comic=0;labelBackgroundColor=none;strokeWidth=1;fontFamily=Verdana;fontSize=12;align=center;" parent="7baba1c4bc27f4b0-8" vertex="1">
          <mxGeometry x="60" y="60" width="10" height="600" as="geometry" />
        </mxCell>
        <mxCell id="7baba1c4bc27f4b0-40" value="Note" style="shape=note;whiteSpace=wrap;html=1;size=14;verticalAlign=top;align=left;spacingTop=-6;rounded=0;shadow=0;comic=0;labelBackgroundColor=none;strokeWidth=1;fontFamily=Verdana;fontSize=12" parent="1" vertex="1">
          <mxGeometry x="100" y="30" width="100" height="35" as="geometry" />
        </mxCell>
        <mxCell id="7baba1c4bc27f4b0-44" value="Note" style="shape=note;whiteSpace=wrap;html=1;size=14;verticalAlign=top;align=left;spacingTop=-6;rounded=0;shadow=0;comic=0;labelBackgroundColor=none;strokeWidth=1;fontFamily=Verdana;fontSize=12" parent="1" vertex="1">
          <mxGeometry x="680" y="30" width="100" height="35" as="geometry" />
        </mxCell>
        <mxCell id="qhPsNnIl0chxg5hmOrn9-4" value=":App" style="shape=umlLifeline;perimeter=lifelinePerimeter;whiteSpace=wrap;html=1;container=1;collapsible=0;recursiveResize=0;outlineConnect=0;rounded=1;shadow=0;comic=0;labelBackgroundColor=none;strokeWidth=1;fontFamily=Verdana;fontSize=12;align=center;" parent="1" vertex="1">
          <mxGeometry x="830" y="80" width="110" height="660" as="geometry" />
        </mxCell>
        <mxCell id="gpRju-ZgFS8z4ciWEc_b-10" value="" style="html=1;points=[];perimeter=orthogonalPerimeter;rounded=0;shadow=0;comic=0;labelBackgroundColor=none;strokeWidth=1;fontFamily=Verdana;fontSize=12;align=center;" parent="qhPsNnIl0chxg5hmOrn9-4" vertex="1">
          <mxGeometry x="50" y="274" width="10" height="20" as="geometry" />
        </mxCell>
        <mxCell id="qhPsNnIl0chxg5hmOrn9-7" value="Note" style="shape=note;whiteSpace=wrap;html=1;size=14;verticalAlign=top;align=left;spacingTop=-6;rounded=0;shadow=0;comic=0;labelBackgroundColor=none;strokeWidth=1;fontFamily=Verdana;fontSize=12" parent="1" vertex="1">
          <mxGeometry x="835" y="20" width="100" height="35" as="geometry" />
        </mxCell>
        <mxCell id="LrHT0d0IzoWxdyFSj2tb-5" value="检查最终状态：成功？" style="html=1;verticalAlign=bottom;endArrow=block;labelBackgroundColor=none;fontFamily=Verdana;fontSize=12;elbow=vertical;edgeStyle=orthogonalEdgeStyle;curved=1;" parent="1" edge="1">
          <mxGeometry x="0.0435" y="40" relative="1" as="geometry">
            <mxPoint x="349.5" y="175" as="sourcePoint" />
            <mxPoint x="370" y="215" as="targetPoint" />
            <Array as="points">
              <mxPoint x="425" y="175" />
              <mxPoint x="425" y="213" />
            </Array>
            <mxPoint as="offset" />
          </mxGeometry>
        </mxCell>
        <mxCell id="LrHT0d0IzoWxdyFSj2tb-6" value=":Mysql" style="shape=umlLifeline;perimeter=lifelinePerimeter;whiteSpace=wrap;html=1;container=1;collapsible=0;recursiveResize=0;outlineConnect=0;rounded=1;shadow=0;comic=0;labelBackgroundColor=none;strokeWidth=1;fontFamily=Verdana;fontSize=12;align=center;" parent="1" vertex="1">
          <mxGeometry x="540" y="80" width="110" height="580" as="geometry" />
        </mxCell>
        <mxCell id="LrHT0d0IzoWxdyFSj2tb-11" value="" style="html=1;points=[];perimeter=orthogonalPerimeter;rounded=0;shadow=0;comic=0;labelBackgroundColor=none;strokeWidth=1;fontFamily=Verdana;fontSize=12;align=center;" parent="LrHT0d0IzoWxdyFSj2tb-6" vertex="1">
          <mxGeometry x="50" y="110" width="10" height="50" as="geometry" />
        </mxCell>
        <mxCell id="LrHT0d0IzoWxdyFSj2tb-35" value="" style="html=1;points=[];perimeter=orthogonalPerimeter;rounded=0;shadow=0;comic=0;labelBackgroundColor=none;strokeWidth=1;fontFamily=Verdana;fontSize=12;align=center;" parent="LrHT0d0IzoWxdyFSj2tb-6" vertex="1">
          <mxGeometry x="50" y="310" width="10" height="30" as="geometry" />
        </mxCell>
        <mxCell id="Tr3l8-SMdbQjOJhXC0d--2" value="" style="html=1;points=[];perimeter=orthogonalPerimeter;rounded=0;shadow=0;comic=0;labelBackgroundColor=none;strokeWidth=1;fontFamily=Verdana;fontSize=12;align=center;" vertex="1" parent="LrHT0d0IzoWxdyFSj2tb-6">
          <mxGeometry x="50" y="260" width="10" height="30" as="geometry" />
        </mxCell>
        <mxCell id="Tr3l8-SMdbQjOJhXC0d--3" style="edgeStyle=orthogonalEdgeStyle;rounded=0;orthogonalLoop=1;jettySize=auto;html=1;fontSize=16;exitX=0.1;exitY=0.65;exitDx=0;exitDy=0;exitPerimeter=0;" edge="1" parent="LrHT0d0IzoWxdyFSj2tb-6">
          <mxGeometry relative="1" as="geometry">
            <mxPoint x="191" y="289" as="sourcePoint" />
            <mxPoint x="60" y="289" as="targetPoint" />
            <Array as="points" />
          </mxGeometry>
        </mxCell>
        <mxCell id="Tr3l8-SMdbQjOJhXC0d--4" value="加载" style="edgeLabel;html=1;align=center;verticalAlign=middle;resizable=0;points=[];" vertex="1" connectable="0" parent="Tr3l8-SMdbQjOJhXC0d--3">
          <mxGeometry x="-0.2246" relative="1" as="geometry">
            <mxPoint as="offset" />
          </mxGeometry>
        </mxCell>
        <mxCell id="LrHT0d0IzoWxdyFSj2tb-9" style="edgeStyle=orthogonalEdgeStyle;rounded=0;orthogonalLoop=1;jettySize=auto;html=1;fontSize=16;" parent="1" target="LrHT0d0IzoWxdyFSj2tb-6" edge="1">
          <mxGeometry relative="1" as="geometry">
            <mxPoint x="370" y="220" as="sourcePoint" />
            <mxPoint x="560" y="220" as="targetPoint" />
            <Array as="points">
              <mxPoint x="530" y="220" />
              <mxPoint x="530" y="220" />
            </Array>
          </mxGeometry>
        </mxCell>
        <mxCell id="LrHT0d0IzoWxdyFSj2tb-10" value="保存最终状态" style="edgeLabel;html=1;align=center;verticalAlign=middle;resizable=0;points=[];" parent="LrHT0d0IzoWxdyFSj2tb-9" vertex="1" connectable="0">
          <mxGeometry x="-0.1263" y="3" relative="1" as="geometry">
            <mxPoint x="17" y="3" as="offset" />
          </mxGeometry>
        </mxCell>
        <mxCell id="LrHT0d0IzoWxdyFSj2tb-12" style="edgeStyle=orthogonalEdgeStyle;rounded=0;orthogonalLoop=1;jettySize=auto;html=1;fontSize=16;exitX=1.1;exitY=0.519;exitDx=0;exitDy=0;exitPerimeter=0;" parent="1" source="S0LsM8EeW1_96Y5W6TbT-2" edge="1">
          <mxGeometry relative="1" as="geometry">
            <mxPoint x="370" y="287" as="sourcePoint" />
            <mxPoint x="734.5" y="285" as="targetPoint" />
            <Array as="points" />
          </mxGeometry>
        </mxCell>
        <mxCell id="LrHT0d0IzoWxdyFSj2tb-13" value="保存进度" style="edgeLabel;html=1;align=center;verticalAlign=middle;resizable=0;points=[];" parent="LrHT0d0IzoWxdyFSj2tb-12" vertex="1" connectable="0">
          <mxGeometry x="-0.1263" y="3" relative="1" as="geometry">
            <mxPoint x="2" as="offset" />
          </mxGeometry>
        </mxCell>
        <mxCell id="gpRju-ZgFS8z4ciWEc_b-15" style="edgeStyle=orthogonalEdgeStyle;rounded=0;orthogonalLoop=1;jettySize=auto;html=1;fontSize=16;exitX=0.1;exitY=0.65;exitDx=0;exitDy=0;exitPerimeter=0;" parent="1" source="gpRju-ZgFS8z4ciWEc_b-10" edge="1">
          <mxGeometry relative="1" as="geometry">
            <mxPoint x="160" y="430" as="sourcePoint" />
            <mxPoint x="740" y="367" as="targetPoint" />
            <Array as="points" />
          </mxGeometry>
        </mxCell>
        <mxCell id="LrHT0d0IzoWxdyFSj2tb-38" value="获取进度" style="edgeLabel;html=1;align=center;verticalAlign=middle;resizable=0;points=[];" parent="gpRju-ZgFS8z4ciWEc_b-15" vertex="1" connectable="0">
          <mxGeometry x="-0.2246" relative="1" as="geometry">
            <mxPoint as="offset" />
          </mxGeometry>
        </mxCell>
        <mxCell id="LrHT0d0IzoWxdyFSj2tb-32" value="更新ttl" style="text;html=1;resizable=0;autosize=1;align=center;verticalAlign=middle;points=[];fillColor=none;strokeColor=none;rounded=0;" parent="1" vertex="1">
          <mxGeometry x="495" y="290" width="50" height="20" as="geometry" />
        </mxCell>
        <mxCell id="LrHT0d0IzoWxdyFSj2tb-36" style="edgeStyle=orthogonalEdgeStyle;rounded=0;orthogonalLoop=1;jettySize=auto;html=1;fontSize=16;" parent="1" edge="1">
          <mxGeometry relative="1" as="geometry">
            <mxPoint x="730" y="397" as="sourcePoint" />
            <mxPoint x="600.0000000000002" y="396.9999999999999" as="targetPoint" />
            <Array as="points" />
          </mxGeometry>
        </mxCell>
        <mxCell id="LrHT0d0IzoWxdyFSj2tb-37" value="固定频率刷" style="edgeLabel;html=1;align=center;verticalAlign=middle;resizable=0;points=[];" parent="LrHT0d0IzoWxdyFSj2tb-36" vertex="1" connectable="0">
          <mxGeometry x="0.1182" relative="1" as="geometry">
            <mxPoint y="5" as="offset" />
          </mxGeometry>
        </mxCell>
      </root>
    </mxGraphModel>
  </diagram>
</mxfile>
